<?xml version="1.0" encoding="UTF-8" standalone="no"?>
<!-- Created with Inkscape (http://www.inkscape.org/) -->

<svg
   version="1.1"
   id="svg1"
   width="226"
   height="248"
   viewBox="0 0 226 248"
   sodipodi:docname="BackgroundLevelBlack.svg"
   inkscape:version="1.3.2 (091e20e, 2023-11-25, custom)"
   xmlns:inkscape="http://www.inkscape.org/namespaces/inkscape"
   xmlns:sodipodi="http://sodipodi.sourceforge.net/DTD/sodipodi-0.dtd"
   xmlns:xlink="http://www.w3.org/1999/xlink"
   xmlns="http://www.w3.org/2000/svg"
   xmlns:svg="http://www.w3.org/2000/svg">
  <defs
     id="defs1" />
  <sodipodi:namedview
     id="namedview1"
     pagecolor="#ffffff"
     bordercolor="#000000"
     borderopacity="0.25"
     inkscape:showpageshadow="2"
     inkscape:pageopacity="0.0"
     inkscape:pagecheckerboard="0"
     inkscape:deskcolor="#d1d1d1"
     showgrid="false"
     inkscape:zoom="3.1330645"
     inkscape:cx="112.98842"
     inkscape:cy="123.68082"
     inkscape:window-width="1920"
     inkscape:window-height="991"
     inkscape:window-x="-9"
     inkscape:window-y="-9"
     inkscape:window-maximized="1"
     inkscape:current-layer="g1" />
  <g
     inkscape:groupmode="layer"
     inkscape:label="Image"
     id="g1">
    <image
       width="226"
       height="248"
       preserveAspectRatio="none"
       xlink:href="..%5C..%5C..%5C..%5CYear%202%5CProgramming%204%5C2DAE09_Programming4_01_Burgisser_Dylan%5CData%5CBackgroundLevelBlack.png"
       id="image1" />
    <path
       style="fill:#000000"
       d="M 181,36 V 20 h 24 v 16 z"
       id="path22" />
    <path
       style="fill:#000000"
       d="M 133,36 V 20 h 32 v 16 z"
       id="path21" />
    <path
       style="fill:#000000"
       d="M 61,36 V 20 h 32 v 16 z"
       id="path20" />
    <path
       style="fill:#000000"
       d="M 21,36 V 20 h 24 v 16 z"
       id="path19" />
    <path
       style="fill:#000000"
       d="m 181,60 v -8 h 24 v 8 z"
       id="path18" />
    <path
       style="fill:#000000"
       d="m 21,60 v -8 h 24 v 8 z"
       id="path17" />
    <path
       style="fill:#000000"
       d="M 109,84 V 60 H 85 v -8 h 56 v 8 h -24 v 24 z"
       id="path16" />
    <path
       style="fill:#000000"
       d="M 157,108 V 84 h -24 v -8 h 24 V 52 h 8 v 56 z"
       id="path15" />
    <path
       style="fill:#000000"
       d="M 61,108 V 52 h 8 v 24 h 24 v 8 H 69 v 24 z"
       id="path14" />
    <path
       style="fill:#000000"
       d="M 0,108 V 0 H 226 V 108 H 181 V 76 h 40 V 4 H 117 v 32 h -8 V 4 H 5 v 72 h 40 v 32 z"
       id="path13" />
    <path
       style="fill:#000000"
       d="m 85,132 v -32 h 56 v 32 z"
       id="path12" />
    <path
       style="fill:#000000"
       d="m 157,156 v -32 h 8 v 32 z"
       id="path11" />
    <path
       style="fill:#000000"
       d="m 61,156 v -32 h 8 v 32 z"
       id="path10" />
    <path
       style="fill:#000000"
       d="m 133,180 v -8 h 32 v 8 z"
       id="path9" />
    <path
       style="fill:#000000"
       d="M 109,180 V 156 H 85 v -8 h 56 v 8 h -24 v 24 z"
       id="path8" />
    <path
       style="fill:#000000"
       d="m 61,180 v -8 h 32 v 8 z"
       id="path7" />
    <path
       style="fill:#000000"
       d="m 181,204 v -32 h 24 v 8 h -16 v 24 z"
       id="path6" />
    <path
       style="fill:#000000"
       d="M 37,204 V 180 H 21 v -8 h 24 v 32 z"
       id="path5" />
    <path
       style="fill:#000000"
       d="m 133,228 v -8 h 24 v -24 h 8 v 24 h 40 v 8 z"
       id="path4" />
    <path
       style="fill:#000000"
       d="M 109,228 V 204 H 85 v -8 h 56 v 8 h -24 v 24 z"
       id="path3" />
    <path
       style="fill:#000000"
       d="m 21,228 v -8 h 40 v -24 h 8 v 24 h 24 v 8 z"
       id="path2" />
    <path
       style="fill:#000000"
       d="M 0,248 V 124 h 45 v 32 H 5 v 40 h 16 v 8 H 5 v 40 h 216 v -40 h -16 v -8 h 16 v -40 h -40 v -32 h 45 v 124 z"
       id="path1" />
  </g>
</svg>
